<svg width="46" height="46" viewBox="0 0 46 46" fill="none" xmlns="http://www.w3.org/2000/svg">
<mask id="mask0_28_767" style="mask-type:alpha" maskUnits="userSpaceOnUse" x="0" y="0" width="46" height="46">
<rect width="46" height="46" fill="#D9D9D9"/>
</mask>
<g mask="url(#mask0_28_767)">
<path d="M5.74995 38.3333C4.82356 38.3333 4.21662 37.8937 3.92912 37.0146C3.64162 36.1368 3.86523 35.4263 4.59995 34.8833L21.0833 22.5208V19.1666C21.0833 18.6236 21.259 18.168 21.6104 17.8C21.9618 17.4333 22.409 17.25 22.952 17.25C23.7826 17.2819 24.4771 17.018 25.0355 16.4584C25.5951 15.9 25.875 15.2055 25.875 14.375C25.875 13.5763 25.5951 12.8978 25.0355 12.3395C24.4771 11.7798 23.7986 11.5 23 11.5C22.2013 11.5 21.5228 11.7798 20.9645 12.3395C20.4048 12.8978 20.125 13.5763 20.125 14.375H16.2916C16.2916 12.5222 16.9465 10.9409 18.2562 9.63121C19.5659 8.32149 21.1472 7.66663 23 7.66663C24.8527 7.66663 26.434 8.31318 27.7437 9.60629C29.0534 10.9007 29.7083 12.4583 29.7083 14.2791C29.7083 15.8125 29.2611 17.1701 28.3666 18.352C27.4722 19.534 26.3222 20.3486 24.9166 20.7958V22.5208L41.4 34.8833C42.1347 35.4263 42.3583 36.1368 42.0708 37.0146C41.7833 37.8937 41.1763 38.3333 40.25 38.3333H5.74995ZM11.5 34.5H34.5L23 25.875L11.5 34.5Z" fill="#161616"/>
</g>
</svg>
