<svg width="46" height="46" viewBox="0 0 46 46" fill="none" xmlns="http://www.w3.org/2000/svg">
<mask id="mask0_28_765" style="mask-type:alpha" maskUnits="userSpaceOnUse" x="0" y="0" width="46" height="46">
<rect width="46" height="46" fill="#D9D9D9"/>
</mask>
<g mask="url(#mask0_28_765)">
<path d="M23 21.0833C18.2083 21.0833 14.1354 20.3326 10.7812 18.8312C7.42708 17.3299 5.75 15.525 5.75 13.4167C5.75 11.3083 7.42708 9.50347 10.7812 8.00208C14.1354 6.50069 18.2083 5.75 23 5.75C27.7917 5.75 31.8646 6.50069 35.2188 8.00208C38.5729 9.50347 40.25 11.3083 40.25 13.4167C40.25 15.525 38.5729 17.3299 35.2188 18.8312C31.8646 20.3326 27.7917 21.0833 23 21.0833ZM23 30.6667C18.2083 30.6667 14.1354 29.916 10.7812 28.4146C7.42708 26.9132 5.75 25.1083 5.75 23V18.2083C5.75 19.6139 6.40486 20.8041 7.71458 21.7791C9.02431 22.7528 10.5896 23.5431 12.4104 24.15C14.2312 24.7569 16.1243 25.1959 18.0895 25.4667C20.0534 25.7389 21.6903 25.875 23 25.875C24.3097 25.875 25.9466 25.7389 27.9105 25.4667C29.8757 25.1959 31.7687 24.7569 33.5896 24.15C35.4104 23.5431 36.9757 22.7528 38.2854 21.7791C39.5951 20.8041 40.25 19.6139 40.25 18.2083V23C40.25 25.1083 38.5729 26.9132 35.2188 28.4146C31.8646 29.916 27.7917 30.6667 23 30.6667ZM23 40.25C18.2083 40.25 14.1354 39.4993 10.7812 37.9979C7.42708 36.4965 5.75 34.6917 5.75 32.5833V27.7917C5.75 29.1972 6.40486 30.3875 7.71458 31.3624C9.02431 32.3361 10.5896 33.1264 12.4104 33.7333C14.2312 34.3403 16.1243 34.7798 18.0895 35.052C20.0534 35.3229 21.6903 35.4583 23 35.4583C24.3097 35.4583 25.9466 35.3229 27.9105 35.052C29.8757 34.7798 31.7687 34.3403 33.5896 33.7333C35.4104 33.1264 36.9757 32.3361 38.2854 31.3624C39.5951 30.3875 40.25 29.1972 40.25 27.7917V32.5833C40.25 34.6917 38.5729 36.4965 35.2188 37.9979C31.8646 39.4993 27.7917 40.25 23 40.25Z" fill="#161616"/>
</g>
</svg>
