<svg width="46" height="46" viewBox="0 0 46 46" fill="none" xmlns="http://www.w3.org/2000/svg">
<mask id="mask0_28_763" style="mask-type:alpha" maskUnits="userSpaceOnUse" x="0" y="0" width="46" height="46">
<rect width="46" height="46" fill="#D9D9D9"/>
</mask>
<g mask="url(#mask0_28_763)">
<path d="M23 26.8334C22.4569 26.8334 22.0021 26.6494 21.6353 26.2814C21.2673 25.9147 21.0833 25.4598 21.0833 24.9167C21.0833 24.3737 21.2673 23.9181 21.6353 23.5501C22.0021 23.1834 22.4569 23 23 23C23.5431 23 23.9986 23.1834 24.3666 23.5501C24.7333 23.9181 24.9167 24.3737 24.9167 24.9167C24.9167 25.4598 24.7333 25.9147 24.3666 26.2814C23.9986 26.6494 23.5431 26.8334 23 26.8334ZM15.3333 26.8334C14.7903 26.8334 14.3348 26.6494 13.9668 26.2814C13.6 25.9147 13.4167 25.4598 13.4167 24.9167C13.4167 24.3737 13.6 23.9181 13.9668 23.5501C14.3348 23.1834 14.7903 23 15.3333 23C15.8764 23 16.3319 23.1834 16.6999 23.5501C17.0666 23.9181 17.25 24.3737 17.25 24.9167C17.25 25.4598 17.0666 25.9147 16.6999 26.2814C16.3319 26.6494 15.8764 26.8334 15.3333 26.8334ZM30.6667 26.8334C30.1236 26.8334 29.6687 26.6494 29.302 26.2814C28.934 25.9147 28.75 25.4598 28.75 24.9167C28.75 24.3737 28.934 23.9181 29.302 23.5501C29.6687 23.1834 30.1236 23 30.6667 23C31.2097 23 31.6646 23.1834 32.0313 23.5501C32.3993 23.9181 32.5833 24.3737 32.5833 24.9167C32.5833 25.4598 32.3993 25.9147 32.0313 26.2814C31.6646 26.6494 31.2097 26.8334 30.6667 26.8334ZM23 34.5C22.4569 34.5 22.0021 34.316 21.6353 33.948C21.2673 33.5813 21.0833 33.1264 21.0833 32.5834C21.0833 32.0403 21.2673 31.5854 21.6353 31.2187C22.0021 30.8507 22.4569 30.6667 23 30.6667C23.5431 30.6667 23.9986 30.8507 24.3666 31.2187C24.7333 31.5854 24.9167 32.0403 24.9167 32.5834C24.9167 33.1264 24.7333 33.5813 24.3666 33.948C23.9986 34.316 23.5431 34.5 23 34.5ZM15.3333 34.5C14.7903 34.5 14.3348 34.316 13.9668 33.948C13.6 33.5813 13.4167 33.1264 13.4167 32.5834C13.4167 32.0403 13.6 31.5854 13.9668 31.2187C14.3348 30.8507 14.7903 30.6667 15.3333 30.6667C15.8764 30.6667 16.3319 30.8507 16.6999 31.2187C17.0666 31.5854 17.25 32.0403 17.25 32.5834C17.25 33.1264 17.0666 33.5813 16.6999 33.948C16.3319 34.316 15.8764 34.5 15.3333 34.5ZM30.6667 34.5C30.1236 34.5 29.6687 34.316 29.302 33.948C28.934 33.5813 28.75 33.1264 28.75 32.5834C28.75 32.0403 28.934 31.5854 29.302 31.2187C29.6687 30.8507 30.1236 30.6667 30.6667 30.6667C31.2097 30.6667 31.6646 30.8507 32.0313 31.2187C32.3993 31.5854 32.5833 32.0403 32.5833 32.5834C32.5833 33.1264 32.3993 33.5813 32.0313 33.948C31.6646 34.316 31.2097 34.5 30.6667 34.5ZM9.58333 42.1667C8.52917 42.1667 7.62642 41.7917 6.87508 41.0416C6.12503 40.2903 5.75 39.3875 5.75 38.3334V11.5C5.75 10.4459 6.12503 9.54376 6.87508 8.79371C7.62642 8.04237 8.52917 7.66671 9.58333 7.66671H11.5V3.83337H15.3333V7.66671H30.6667V3.83337H34.5V7.66671H36.4167C37.4708 7.66671 38.3736 8.04237 39.1249 8.79371C39.875 9.54376 40.25 10.4459 40.25 11.5V38.3334C40.25 39.3875 39.875 40.2903 39.1249 41.0416C38.3736 41.7917 37.4708 42.1667 36.4167 42.1667H9.58333ZM9.58333 38.3334H36.4167V19.1667H9.58333V38.3334ZM9.58333 15.3334H36.4167V11.5H9.58333V15.3334Z" fill="#161616"/>
</g>
</svg>
