<svg width="46" height="46" viewBox="0 0 46 46" fill="none" xmlns="http://www.w3.org/2000/svg">
<mask id="mask0_28_768" style="mask-type:alpha" maskUnits="userSpaceOnUse" x="0" y="0" width="46" height="46">
<rect width="46" height="46" fill="#D9D9D9"/>
</mask>
<g mask="url(#mask0_28_768)">
<path d="M23 44.0833C19.4222 44.0833 16.132 43.2687 13.1292 41.6395C10.1264 40.0104 7.66669 37.8382 5.75002 35.1229V40.25H1.91669V28.75H13.4167V32.5833H8.67294C10.2063 34.8833 12.2271 36.7361 14.7354 38.1416C17.2424 39.5472 19.9972 40.25 23 40.25C25.3959 40.25 27.6403 39.7951 29.7333 38.8853C31.825 37.9742 33.6458 36.7437 35.1958 35.1938C36.7444 33.6451 37.9743 31.8243 38.8854 29.7313C39.7951 27.6396 40.25 25.3958 40.25 23H44.0834C44.0834 25.9069 43.5326 28.6382 42.4312 31.1937C41.3285 33.7493 39.8188 35.9854 37.9021 37.902C35.9854 39.8187 33.7493 41.3278 31.1938 42.4292C28.6382 43.5319 25.907 44.0833 23 44.0833ZM1.91669 23C1.91669 20.093 2.46805 17.3618 3.57077 14.8062C4.67221 12.2507 6.18127 10.0145 8.09794 8.09788C10.0146 6.18121 12.2507 4.67151 14.8063 3.56879C17.3618 2.46735 20.0931 1.91663 23 1.91663C26.5778 1.91663 29.8681 2.73121 32.8709 4.36038C35.8736 5.98954 38.3334 8.16177 40.25 10.877V5.74996H44.0834V17.25H32.5834V13.4166H37.3271C35.7938 11.1166 33.773 9.26385 31.2647 7.85829C28.7577 6.45274 26.0028 5.74996 23 5.74996C20.6042 5.74996 18.3604 6.20485 16.2687 7.11463C14.1757 8.02568 12.3549 9.25554 10.8062 10.8042C9.25624 12.3542 8.02574 14.175 7.11469 16.2667C6.20491 18.3597 5.75002 20.6041 5.75002 23H1.91669ZM21.275 36.4166H24.6292V34.0208C26.2264 33.7333 27.6 33.1104 28.75 32.152C29.9 31.1937 30.475 29.7722 30.475 27.8875C30.475 26.5458 30.0917 25.3159 29.325 24.1979C28.5584 23.0798 27.025 22.1055 24.725 21.275C22.8084 20.6361 21.4827 20.077 20.7479 19.5979C20.0132 19.1187 19.6459 18.4638 19.6459 17.6333C19.6459 16.8027 19.9417 16.1479 20.5333 15.6687C21.1236 15.1895 21.9778 14.95 23.0959 14.95C24.1181 14.95 24.9167 15.1978 25.4917 15.6936C26.0667 16.1881 26.482 16.8027 26.7375 17.5375L29.8042 16.2916C29.4528 15.1736 28.8062 14.1993 27.8645 13.3687C26.9215 12.5382 25.875 12.075 24.725 11.9791V9.58329H21.3709V11.9791C19.7736 12.3305 18.5278 13.0333 17.6334 14.0875C16.7389 15.1416 16.2917 16.3236 16.2917 17.6333C16.2917 19.1347 16.7312 20.3486 17.6104 21.275C18.4882 22.2013 19.8695 23 21.7542 23.6708C23.7667 24.4055 25.1646 25.0604 25.9479 25.6354C26.7299 26.2104 27.1209 26.9611 27.1209 27.8875C27.1209 28.9416 26.7452 29.716 25.9939 30.2105C25.2438 30.7062 24.3417 30.9541 23.2875 30.9541C22.2334 30.9541 21.2993 30.6264 20.4854 29.9709C19.6701 29.3167 19.0709 28.3347 18.6875 27.025L15.525 28.2708C15.9722 29.8041 16.6674 31.0423 17.6104 31.9853C18.5521 32.927 19.7736 33.5736 21.275 33.925V36.4166Z" fill="#1C1B1F"/>
</g>
</svg>
