<svg width="46" height="46" viewBox="0 0 46 46" fill="none" xmlns="http://www.w3.org/2000/svg">
<mask id="mask0_28_764" style="mask-type:alpha" maskUnits="userSpaceOnUse" x="0" y="0" width="46" height="46">
<rect width="46" height="46" fill="#D9D9D9"/>
</mask>
<g mask="url(#mask0_28_764)">
<path d="M30.6667 24.9167C27.6639 22.2014 24.9965 19.6063 22.6646 17.1312C20.3326 14.6549 19.1667 12.3306 19.1667 10.1584C19.1667 8.36949 19.7736 6.8681 20.9875 5.65421C22.2014 4.44032 23.7028 3.83337 25.4917 3.83337C26.5139 3.83337 27.4722 4.04868 28.3667 4.47929C29.2611 4.91118 30.0278 5.49449 30.6667 6.22921C31.3055 5.49449 32.0722 4.91118 32.9667 4.47929C33.8611 4.04868 34.8194 3.83337 35.8417 3.83337C37.6305 3.83337 39.1319 4.44032 40.3458 5.65421C41.5597 6.8681 42.1667 8.36949 42.1667 10.1584C42.1667 12.3306 41.0007 14.6549 38.6687 17.1312C36.3368 19.6063 33.6694 22.2014 30.6667 24.9167ZM30.6667 19.7417C32.5514 17.9528 34.3007 16.1716 35.9145 14.398C37.527 12.6258 38.3333 11.2125 38.3333 10.1584C38.3333 9.42365 38.102 8.82437 37.6395 8.36054C37.1757 7.89799 36.5764 7.66671 35.8417 7.66671C35.3944 7.66671 34.9715 7.75424 34.5728 7.92929C34.1729 8.10562 33.8292 8.36949 33.5417 8.72087L30.6667 12.1709L27.7917 8.72087C27.5042 8.36949 27.1611 8.10562 26.7624 7.92929C26.3625 7.75424 25.9389 7.66671 25.4917 7.66671C24.7569 7.66671 24.1583 7.89799 23.6957 8.36054C23.2319 8.82437 23 9.42365 23 10.1584C23 11.2125 23.8063 12.6258 25.4188 14.398C27.0327 16.1716 28.7819 17.9528 30.6667 19.7417ZM26.8333 43.125L13.4167 39.3875V42.1667H1.91666V21.0834H17.1542L29.0375 25.4917C30.0917 25.875 30.9465 26.5459 31.602 27.5042C32.2562 28.4625 32.5833 29.5167 32.5833 30.6667H36.4167C38.0139 30.6667 39.3715 31.1938 40.4896 32.248C41.6076 33.3021 42.1667 34.6917 42.1667 36.4167V38.3334L26.8333 43.125ZM5.74999 38.3334H9.58332V24.9167H5.74999V38.3334ZM26.7375 39.1L38.1417 35.5542C38.0458 35.2028 37.8299 34.939 37.4938 34.7626C37.159 34.5876 36.8 34.5 36.4167 34.5H27.2167C26.2264 34.5 25.3319 34.4362 24.5333 34.3084C23.7347 34.1806 22.8722 33.957 21.9458 33.6375L18.6396 32.4875L19.7417 28.8459L23.575 30.0917C24.15 30.2834 24.8208 30.4271 25.5875 30.523C26.3542 30.6188 27.4083 30.6667 28.75 30.6667C28.75 30.3153 28.6465 29.9799 28.4395 29.6605C28.2312 29.341 27.9833 29.1334 27.6958 29.0375L16.4833 24.9167H13.4167V35.4584L26.7375 39.1Z" fill="#161616"/>
</g>
</svg>
