<svg width="46" height="46" viewBox="0 0 46 46" fill="none" xmlns="http://www.w3.org/2000/svg">
<mask id="mask0_28_769" style="mask-type:alpha" maskUnits="userSpaceOnUse" x="0" y="0" width="46" height="46">
<rect width="46" height="46" fill="#D9D9D9"/>
</mask>
<g mask="url(#mask0_28_769)">
<path d="M10.8293 19.2146L14.5668 20.7959C15.014 19.9014 15.4772 19.0389 15.9563 18.2084C16.4355 17.3778 16.9626 16.5472 17.5376 15.7167L14.8543 15.1896L10.8293 19.2146ZM17.6334 23.1917L23.0959 28.6063C24.4376 28.0952 25.8751 27.3125 27.4084 26.2584C28.9418 25.2042 30.3793 24.0063 31.7209 22.6646C33.957 20.4285 35.7063 17.9451 36.9688 15.2145C38.2299 12.4826 38.7806 9.96669 38.6209 7.66669C36.3209 7.50696 33.7973 8.05769 31.0501 9.31885C28.3029 10.5813 25.8112 12.3306 23.5751 14.5667C22.2334 15.9084 21.0355 17.3459 19.9813 18.8792C18.9272 20.4125 18.1445 21.85 17.6334 23.1917ZM26.1626 20.0771C25.4279 19.3424 25.0605 18.4396 25.0605 17.3689C25.0605 16.2994 25.4279 15.3972 26.1626 14.6625C26.8973 13.9278 27.8077 13.5604 28.8938 13.5604C29.98 13.5604 30.8904 13.9278 31.6251 14.6625C32.3598 15.3972 32.7272 16.2994 32.7272 17.3689C32.7272 18.4396 32.3598 19.3424 31.6251 20.0771C30.8904 20.8118 29.98 21.1792 28.8938 21.1792C27.8077 21.1792 26.8973 20.8118 26.1626 20.0771ZM27.073 35.4584L31.098 31.4334L30.5709 28.75C29.7404 29.325 28.9098 29.8438 28.0793 30.3064C27.2487 30.7702 26.3862 31.2257 25.4918 31.6729L27.073 35.4584ZM42.0709 4.16877C42.6779 8.03405 42.3028 11.7952 40.9458 15.4522C39.5876 19.1105 37.2473 22.6007 33.9251 25.9229L34.8834 30.6667C35.0112 31.3056 34.9793 31.9285 34.7876 32.5354C34.5959 33.1424 34.2765 33.6695 33.8293 34.1167L25.7793 42.1667L21.7543 32.7271L13.5605 24.5334L4.12093 20.5084L12.123 12.4584C12.5702 12.0111 13.1056 11.6917 13.7292 11.5C14.3515 11.3084 14.982 11.2764 15.6209 11.4042L20.3647 12.3625C23.6869 9.0403 27.1688 6.69238 30.8105 5.31877C34.4522 3.94516 38.2057 3.56182 42.0709 4.16877ZM7.52301 30.6188C8.64107 29.5007 10.0064 28.9334 11.6189 28.9168C13.2328 28.9014 14.5987 29.4528 15.7168 30.5709C16.8348 31.6889 17.3855 33.0542 17.3689 34.6668C17.3536 36.2806 16.7869 37.6465 15.6688 38.7646C14.8702 39.5632 13.5369 40.25 11.6688 40.825C9.79937 41.4 7.21954 41.9111 3.92926 42.3584C4.37648 39.0681 4.88759 36.4882 5.46259 34.6189C6.03759 32.7507 6.7244 31.4174 7.52301 30.6188ZM10.2543 33.3021C9.93482 33.6215 9.61537 34.2049 9.29593 35.052C8.97648 35.8979 8.75287 36.7521 8.62509 37.6146C9.48759 37.4868 10.3424 37.2715 11.1896 36.9687C12.0355 36.6646 12.6181 36.3528 12.9376 36.0334C13.3209 35.65 13.5286 35.1868 13.5605 34.6438C13.5925 34.1007 13.4168 33.6375 13.0334 33.2542C12.6501 32.8709 12.1869 32.6869 11.6438 32.7022C11.1008 32.7188 10.6376 32.9188 10.2543 33.3021Z" fill="#161616"/>
</g>
</svg>
