<svg width="46" height="46" viewBox="0 0 46 46" fill="none" xmlns="http://www.w3.org/2000/svg">
<mask id="mask0_28_766" style="mask-type:alpha" maskUnits="userSpaceOnUse" x="0" y="0" width="46" height="46">
<rect width="46" height="46" fill="#D9D9D9"/>
</mask>
<g mask="url(#mask0_28_766)">
<path d="M9.91875 30.6666H36.0813L32.3438 26.4499L35.075 23.7187L40.25 29.6124V38.3333C40.25 39.3874 39.875 40.2902 39.1249 41.0415C38.3736 41.7916 37.4708 42.1666 36.4167 42.1666H9.58333C8.52917 42.1666 7.62642 41.7916 6.87508 41.0415C6.12503 40.2902 5.75 39.3874 5.75 38.3333V29.6124L11.0208 23.6229L13.7521 26.3541L9.91875 30.6666ZM35.3625 18.0166L25.7792 27.5999C25.0444 28.3347 24.1423 28.6937 23.0728 28.6771C22.0021 28.6618 21.0993 28.2867 20.3646 27.552L13.6083 20.7958C12.8736 20.061 12.5146 19.1589 12.5312 18.0894C12.5465 17.0187 12.9215 16.1159 13.6562 15.3812L23.0479 5.98952C23.7826 5.2548 24.6931 4.87147 25.7792 4.83952C26.8653 4.80758 27.7757 5.15897 28.5104 5.89369L35.2667 12.6499C36.0014 13.3847 36.3847 14.2791 36.4167 15.3333C36.4486 16.3874 36.0972 17.2819 35.3625 18.0166ZM32.5833 15.3812L25.8271 8.62494L16.3396 18.1124L23.0958 24.8687L32.5833 15.3812ZM9.58333 38.3333H36.4167V34.4999H9.58333V38.3333Z" fill="#161616"/>
</g>
</svg>
