<svg width="284" height="83" viewBox="0 0 284 83" fill="none" xmlns="http://www.w3.org/2000/svg">
<path d="M184.5 64.975L184 64.775H163.1L162.6 64.975L159.1 68.975L158.9 69.475V82.175H163.1V75.575H183.7V82.175H187.9V69.475L187.7 68.975L184.5 64.975ZM183.9 71.375H163.3V70.375L164.5 68.975H182.8L184 70.375L183.9 71.375Z" fill="white"/>
<path d="M63.6001 65.475V69.475L63.7001 69.875L66.8001 73.475L63.8001 76.875L63.6001 77.375V82.175H67.8001V78.275L70.2001 75.575H92.7001V71.375H70.2001L68.2001 68.975H92.7001V64.775H64.2001L63.6001 65.475Z" fill="white"/>
<path d="M258 64.975L254.6 68.975L254.4 69.375V74.775L255.1 75.575H279.2L279.3 76.575L278.1 77.975H254.4V82.175H279.4L279.9 81.875L283.3 77.975L283.5 77.375V71.975L282.9 71.375H258.7V70.275L259.8 68.975H283.5V64.775H258.5L258 64.975Z" fill="white"/>
<path d="M191.4 64.775L190.9 65.475V71.375H195.1V68.975H203.3V82.175H207.5V68.975H215.7V71.375H219.9V65.475L219.3 64.775H191.4Z" fill="white"/>
<path d="M156.3 69.375V65.475L155.7 64.775H127.8L127.2 65.475V82.275H131.4V75.675H149.7L152.1 78.375V82.175H156.3V77.475L156 76.875L153 73.475L156 70.075L156.3 69.375ZM149.6 71.375H131.4V68.975C131.4 68.975 145.1 68.975 151.7 68.975L149.6 71.375Z" fill="white"/>
<path d="M226.7 64.775L226.3 64.875L222.8 68.875L222.7 69.275V82.075H247.7L248.1 81.7751L251.6 77.7751L251.7 77.375V65.275L251.2 64.675H226.7V64.775ZM247.5 76.575L246.3 77.875H226.9V70.075L227.9 68.875H247.4V76.575H247.5Z" fill="white"/>
<path d="M95.3999 65.475V69.475L95.4999 69.875L98.5999 73.475L95.4999 76.975L95.3999 77.375V81.475L96.0999 82.175H124.5V77.975H99.8999L102 75.575H124.5V71.375H102L99.9999 68.975H124.5V64.775H95.9999L95.3999 65.475Z" fill="white"/>
<path d="M56.6 74.675L36.0001 67.875V64.775H31.8V82.175H36.0001V72.275L56.6 79.075V82.175H60.9001V64.775H56.6V74.675Z" fill="white"/>
<path d="M0.599976 64.575L0 65.275V68.775H12.4V77.775H0V81.275L0.599976 81.975H28.5L29.1 81.275V77.775H16.7V68.775H29.1V65.275L28.5 64.575H0.599976Z" fill="white"/>
<path d="M75.6999 17.775C76.6999 19.475 77.7999 21.175 78.6999 22.875L88.3999 41.275L103 48.375C105 49.275 107.2 49.375 109.2 48.375L177.3 15.775V33.275L162 25.975L144.7 34.275L174.2 48.375C176.2 49.275 178.4 49.275 180.4 48.375L195 41.275L204.7 22.875C205.6 21.175 206.7 19.475 207.7 17.775C208.5 16.475 208 14.575 206.5 13.875L191.9 6.57499C191.7 6.47499 191.5 6.275 191.2 6.175L180.2 0.675C178.3 -0.225 176.2 -0.225 174.3 0.675L106.1 33.375V15.875L121.4 23.175L138.7 14.875L109.1 0.675C107.2 -0.225 105.1 -0.225 103.2 0.675L92.1999 6.175C91.9999 6.275 91.7999 6.37499 91.5999 6.47499L76.7999 13.875C75.3999 14.575 74.8999 16.375 75.6999 17.775Z" fill="white"/>
</svg>
