<svg width="284" height="18" viewBox="0 0 284 18" fill="none" xmlns="http://www.w3.org/2000/svg">
<path d="M184.5 0.400009L184 0.200012H163.1L162.6 0.400009L159.1 4.40001L158.9 4.90001V17.6H163.1V11H183.7V17.6H187.9V4.90001L187.7 4.40001L184.5 0.400009ZM183.9 6.80001H163.3V5.80001L164.5 4.40001H182.8L184 5.80001L183.9 6.80001Z" fill="black"/>
<path d="M63.6001 0.900009V4.90001L63.7001 5.30001L66.8001 8.90001L63.8001 12.3L63.6001 12.8V17.6H67.8001V13.7L70.2001 11H92.7001V6.80001H70.2001L68.2001 4.40001H92.7001V0.200012H64.2001L63.6001 0.900009Z" fill="black"/>
<path d="M258 0.400009L254.6 4.40001L254.4 4.80001V10.2L255.1 11H279.2L279.3 12L278.1 13.4H254.4V17.6H279.4L279.9 17.3L283.3 13.3L283.5 12.8V7.40001L282.9 6.80001H258.7V5.70001L259.8 4.40001H283.5V0.200012H258.5L258 0.400009Z" fill="black"/>
<path d="M191.4 0.200012L190.9 0.800011V6.80001H195.1V4.40001H203.3V17.6H207.5V4.40001H215.7V6.80001H219.9V0.800011L219.3 0.200012H191.4Z" fill="black"/>
<path d="M156.3 4.80001V0.900009L155.7 0.200012H127.8L127.2 0.900009V17.7H131.4V11.1H149.7L152.1 13.8V17.6H156.3V12.9L156 12.3L153 8.90001L156 5.50001L156.3 4.80001ZM149.6 6.80001H131.4V4.40001C131.4 4.40001 145.1 4.40001 151.7 4.40001L149.6 6.80001Z" fill="black"/>
<path d="M226.7 0.200012L226.3 0.300011L222.8 4.30001L222.7 4.70001V17.5H247.7L248.1 17.2L251.6 13.2L251.7 12.8V0.800011L251.2 0.200012H226.7ZM247.5 12L246.3 13.3H226.9V5.50001L227.9 4.30001H247.4V12H247.5Z" fill="black"/>
<path d="M95.3999 0.900009V4.90001L95.4999 5.30001L98.5999 8.90001L95.4999 12.4L95.3999 12.8V16.9L96.0999 17.6H124.5V13.4H99.8999L102 11H124.5V6.80001H102L99.9999 4.40001H124.5V0.200012H95.9999L95.3999 0.900009Z" fill="black"/>
<path d="M56.5998 10.1L35.9998 3.30001V0.200012H31.7998V17.6H35.9998V7.70001L56.5998 14.5V17.6H60.8998V0.200012H56.5998V10.1Z" fill="black"/>
<path d="M0.599976 0L0 0.700005V4.2H12.4V13.2H0V16.7L0.599976 17.4H28.5L29.1 16.7V13.2H16.7V4.2H29.1V0.700005L28.5 0H0.599976Z" fill="black"/>
</svg>
