<svg width="284" height="83" viewBox="0 0 284 83" fill="none" xmlns="http://www.w3.org/2000/svg">
<path d="M184.5 65.075L184 64.875H163.1L162.6 65.075L159.1 69.075L158.9 69.575V82.275H163.1V75.675H183.7V82.275H187.9V69.575L187.7 69.075L184.5 65.075ZM183.9 71.475H163.3V70.475L164.5 69.075H182.8L184 70.475L183.9 71.475Z" fill="black"/>
<path d="M63.6001 65.575V69.575L63.7001 69.975L66.8001 73.575L63.8001 77.075L63.6001 77.475V82.275H67.8001V78.375L70.2001 75.675H92.7001V71.475H70.2001L68.2001 69.075H92.7001V64.875H64.2001L63.6001 65.575Z" fill="black"/>
<path d="M258 65.075L254.6 69.075L254.4 69.475V74.875L255.1 75.675H279.2L279.3 76.775L278.1 78.075H254.4V82.275H279.4L279.9 81.975L283.3 78.075L283.5 77.475V72.075L282.9 71.475H258.7V70.375L259.8 69.075H283.5V64.875H258.5L258 65.075Z" fill="black"/>
<path d="M191.4 64.875L190.9 65.575V71.475H195.1V69.075H203.3V82.275H207.5V69.075H215.7V71.475H219.9V65.575L219.3 64.875H191.4Z" fill="black"/>
<path d="M156.3 69.475V65.575L155.7 64.875H127.8L127.2 65.575V82.375H131.4V75.775H149.7L152.1 78.475V82.275H156.3V77.575L156 76.975L153 73.575L156 70.175L156.3 69.475ZM149.6 71.475H131.4V69.075C131.4 69.075 145.1 69.075 151.7 69.075L149.6 71.475Z" fill="black"/>
<path d="M226.7 64.875L226.3 64.975L222.8 68.975L222.7 69.375V82.175H247.7L248.1 81.875L251.6 77.875L251.7 77.475V65.475L251.2 64.875H226.7ZM247.5 76.675L246.3 77.975H226.9V70.175L227.9 68.975H247.4V76.675H247.5Z" fill="black"/>
<path d="M95.3999 65.575V69.575L95.4999 69.975L98.5999 73.575L95.4999 77.075L95.3999 77.475V81.575L96.0999 82.275H124.5V78.075H99.8999L102 75.675H124.5V71.475H102L99.9999 69.075H124.5V64.875H95.9999L95.3999 65.575Z" fill="black"/>
<path d="M56.5998 74.775L35.9998 67.975V64.875H31.7998V82.275H35.9998V72.375L56.5998 79.175V82.275H60.8998V64.875H56.5998V74.775Z" fill="black"/>
<path d="M0.599976 64.675L0 65.375V68.975H12.4V77.875H0V81.475L0.599976 82.075H28.5L29.1 81.475V77.875H16.7V68.975H29.1V65.375L28.5 64.675H0.599976Z" fill="black"/>
<path d="M75.6998 17.875C76.6998 19.575 77.7998 21.275 78.6998 22.975L88.3998 41.375L103 48.475C105 49.375 107.2 49.475 109.2 48.475L177.3 15.875V33.375L162 26.075L144.8 34.375L174.3 48.475C176.3 49.375 178.5 49.375 180.5 48.475L195.1 41.375L204.8 22.975C205.7 21.275 206.8 19.575 207.8 17.875C208.6 16.575 208.1 14.675 206.6 13.975L192 6.675C191.8 6.575 191.6 6.375 191.3 6.275L180.3 0.774998C178.4 -0.125002 176.3 -0.125002 174.4 0.774998L106.2 33.475V15.875L121.5 23.175L138.8 14.875L109.2 0.675C107.3 -0.225 105.2 -0.225 103.3 0.675L92.2998 6.175C92.0998 6.275 91.8998 6.375 91.6998 6.475L76.8998 13.875C75.3998 14.675 74.8998 16.575 75.6998 17.875Z" fill="black"/>
</svg>
