<svg width="284" height="18" viewBox="0 0 284 18" fill="none" xmlns="http://www.w3.org/2000/svg">
<path d="M184.5 0.400024L184 0.200012H163.1L162.6 0.400024L159.1 4.40002L158.9 4.90002V17.6H163.1V11H183.7V17.6H187.9V4.90002L187.7 4.40002L184.5 0.400024ZM183.9 6.70001H163.3V5.70001L164.5 4.30002H182.8L184 5.70001L183.9 6.70001Z" fill="white"/>
<path d="M63.6001 0.799973V4.79997L63.7001 5.29997L66.8001 8.79997L63.8001 12.3L63.6001 12.8V17.6H67.8001V13.7L70.2001 11H92.7001V6.69997H70.2001L68.2001 4.39998H92.7001V0.0999756H64.2001L63.6001 0.799973Z" fill="white"/>
<path d="M258 0.399979L254.6 4.29997L254.4 4.79997V10.2L255.1 11H279.2L279.3 12L278.1 13.3H254.4V17.6H279.4L279.9 17.3L283.3 13.3L283.5 12.8V7.39998L282.9 6.69997H258.7V5.59998L259.8 4.39998H283.5V0.0999756H258.5L258 0.399979Z" fill="white"/>
<path d="M191.4 0.0999756L190.9 0.799973V6.79997H195.1V4.39998H203.3V17.6H207.5V4.39998H215.7V6.79997H219.9V0.799973L219.3 0.0999756H191.4Z" fill="white"/>
<path d="M156.3 4.69997V0.799973L155.7 0.0999756H127.8L127.2 0.799973V17.6H131.4V11H149.7L152.1 13.7V17.5H156.3V12.8L156 12.2L153 8.79997L156 5.39998L156.3 4.69997ZM149.6 6.69997H131.4V4.29997C131.4 4.29997 145.1 4.29997 151.7 4.29997L149.6 6.69997Z" fill="white"/>
<path d="M226.7 0.100006L226.3 0.199997L222.8 4.2L222.7 4.60001V17.4H247.7L248.1 17.1L251.6 13.1L251.7 12.7V0.600006L251.2 0H226.7V0.100006ZM247.5 12L246.3 13.3H226.9V5.5L227.9 4.3H247.4V12H247.5Z" fill="white"/>
<path d="M95.3999 0.799973V4.79997L95.4999 5.29997L98.5999 8.79997L95.4999 12.4L95.3999 12.8V16.9L96.0999 17.6H124.5V13.3H99.8999L102 11H124.5V6.69997H102L99.9999 4.39998H124.5V0.0999756H95.9999L95.3999 0.799973Z" fill="white"/>
<path d="M56.5998 9.99997L35.9998 3.29997V0.0999756H31.7998V17.6H35.9998V7.69997L56.5998 14.4V17.6H60.8998V0.0999756H56.5998V9.99997Z" fill="white"/>
<path d="M0.599976 0L0 0.699997V4.2H12.4V13.2H0V16.7L0.599976 17.4H28.5L29.1 16.7V13.2H16.7V4.2H29.1V0.699997L28.5 0H0.599976Z" fill="white"/>
</svg>
