<svg width="133" height="50" viewBox="0 0 133 50" fill="none" xmlns="http://www.w3.org/2000/svg">
<path d="M0.378468 17.875C1.37847 19.575 2.47847 21.275 3.37847 22.975L13.0785 41.375L27.6785 48.475C29.6785 49.375 31.8785 49.475 33.8785 48.475L101.978 15.875V33.375L86.6785 26.075L69.4785 34.275L98.9785 48.375C100.978 49.275 103.178 49.275 105.178 48.375L119.778 41.275L129.478 22.875C130.378 21.175 131.478 19.475 132.478 17.775C133.278 16.475 132.778 14.575 131.278 13.875L116.678 6.575C116.478 6.475 116.278 6.275 115.978 6.175L104.978 0.675C103.078 -0.225 100.978 -0.225 99.0785 0.675L30.8785 33.375V15.875L46.1785 23.175L63.4785 14.875L33.8785 0.675C31.9785 -0.225 29.8785 -0.225 27.9785 0.675L16.9785 6.175C16.7785 6.275 16.5785 6.375 16.3785 6.475L1.57848 13.875C0.0784807 14.675 -0.421532 16.475 0.378468 17.875Z" fill="black"/>
</svg>
