<svg width="133" height="50" viewBox="0 0 133 50" fill="none" xmlns="http://www.w3.org/2000/svg">
<path d="M0.381797 17.775C1.3818 19.475 2.4818 21.175 3.3818 22.875L13.0818 41.275L27.6818 48.375C29.6818 49.275 31.8818 49.375 33.8818 48.375L101.982 15.775V33.275L86.6818 25.975L69.3818 34.275L98.8818 48.375C100.882 49.275 103.082 49.275 105.082 48.375L119.682 41.275L129.382 22.875C130.282 21.175 131.382 19.475 132.382 17.775C133.182 16.475 132.682 14.575 131.182 13.875L116.582 6.57499C116.382 6.47499 116.182 6.275 115.882 6.175L104.882 0.675C102.982 -0.225 100.882 -0.225 98.9818 0.675L30.7818 33.375V15.875L46.0818 23.175L63.3818 14.875L33.7818 0.675C31.8818 -0.225 29.7818 -0.225 27.8818 0.675L16.8818 6.175C16.6818 6.275 16.4818 6.37499 16.2818 6.47499L1.4818 13.875C0.0818032 14.675 -0.418203 16.475 0.381797 17.775Z" fill="white"/>
</svg>
